<?xml version="1.0" encoding="UTF-8"?>
<svg version="1.1" xmlns="http://www.w3.org/2000/svg" width="224" height="179">
<path d="M0 0 C-1.88792554 6.53512686 -1.88792554 6.53512686 -5 9 C-7.55859375 9.87890625 -7.55859375 9.87890625 -10.4375 10.5625 C-13.86709032 11.38840134 -16.96272291 12.16656394 -20 14 C-20.33 14.66 -20.66 15.32 -21 16 C-20.13375 15.505 -19.2675 15.01 -18.375 14.5 C-14.89250377 12.9522239 -12.75240542 12.73197104 -9 13 C-9 13.66 -9 14.32 -9 15 C-8.01 15.495 -8.01 15.495 -7 16 C-7.66 17.32 -8.32 18.64 -9 20 C-7.515 20.495 -7.515 20.495 -6 21 C-6.14438035 23.10426686 -6.29059774 25.20840769 -6.4375 27.3125 C-6.55931641 29.07013672 -6.55931641 29.07013672 -6.68359375 30.86328125 C-6.83693477 33.00663628 -7.01474184 35.14079442 -7.23852539 37.27807617 C-8.17936979 46.39750261 -8.34131883 55.52879392 -8.5625 64.6875 C-8.60579408 66.3717532 -8.64941141 68.05599811 -8.69335938 69.74023438 C-8.79929728 73.82673711 -8.90086925 77.9133267 -9 82 C-12.83457092 83.130983 -16.59638212 84.20076207 -20.546875 84.82421875 C-38.73839162 87.83759164 -56.40762779 92.51349382 -74.11328125 97.60546875 C-74.89184982 97.82920166 -75.6704184 98.05293457 -76.47257996 98.28344727 C-80.30471657 99.3865243 -84.13416394 100.49783356 -87.9597168 101.62353516 C-95.57823665 103.84961716 -103.13506563 105.82551715 -111 107 C-101.22630082 106.75541826 -92.53435345 104.78912924 -83.23336792 102.05007935 C-79.27812312 100.88707513 -75.30992109 99.7695853 -71.34375 98.64453125 C-70.55016586 98.41823532 -69.75658173 98.19193939 -68.93894958 97.95878601 C-47.34270272 91.81368867 -25.81798402 85.87725019 -3.25 85.625 C-2.33234863 85.61090088 -1.41469727 85.59680176 -0.46923828 85.58227539 C5.95041175 85.62915581 10.47879825 86.72825693 15.9375 90.25 C17.71160802 93.17206028 17.35518635 95.6849274 17 99 C15.5992937 101.10105946 14.67304358 101.77937576 12.29370117 102.55932617 C9.35260797 103.1243792 6.54641958 103.14664855 3.55078125 103.17578125 C-24.20705016 103.61937219 -50.98652032 106.93916722 -78.27563477 111.9152832 C-121.52826251 119.78557682 -121.52826251 119.78557682 -132.5625 112.25 C-134.46273665 109.27571655 -135 107.55812167 -135 104 C-131.69365127 94.10040293 -123.48221537 88.3229022 -114.5234375 83.73046875 C-108.59938163 81 -108.59938163 81 -105 81 C-103.29313928 67.22319558 -104.20795873 53.55756501 -105 39.75 C-105.09665827 38.0221524 -105.19301463 36.29428789 -105.2890625 34.56640625 C-105.52256585 30.37740125 -105.76013848 26.18864554 -106 22 C-100.48544931 19.39491322 -95.13918037 17.22530161 -89.1875 15.875 C-88.47247314 15.71032227 -87.75744629 15.54564453 -87.02075195 15.37597656 C-70.95681553 11.88719562 -54.3063808 10.97974043 -38 13 C-37.62875 11.5459375 -37.62875 11.5459375 -37.25 10.0625 C-36 7 -36 7 -34.0625 6.125 C-32.37757728 6.02288347 -30.68801432 6 -29 6 C-29.66 8.64 -30.32 11.28 -31 14 C-30.01 13.67 -29.02 13.34 -28 13 C-27.67 12.01 -27.34 11.02 -27 10 C-26.01 10.495 -26.01 10.495 -25 11 C-25 11.99 -25 12.98 -25 14 C-21.26128094 10.48120559 -18.27878282 6.78053168 -15.33203125 2.57421875 C-14.89246094 2.05472656 -14.45289063 1.53523438 -14 1 C-13.34 1 -12.68 1 -12 1 C-13.33333333 3.66666667 -14.66666667 6.33333333 -16 9 C-15.278125 8.236875 -14.55625 7.47375 -13.8125 6.6875 C-9.73794838 2.79403957 -5.77243112 0 0 0 Z M-19 18 C-19 18.66 -19 19.32 -19 20 C-17.68 19.34 -16.36 18.68 -15 18 C-16.32 18 -17.64 18 -19 18 Z M-55 19 C-55.66 20.32 -56.32 21.64 -57 23 C-55.35 22.34 -53.7 21.68 -52 21 C-52 20.34 -52 19.68 -52 19 C-52.99 19 -53.98 19 -55 19 Z M-35 30 C-35.99 30.99 -36.98 31.98 -38 33 C-36.68 32.67 -35.36 32.34 -34 32 C-34.33 31.34 -34.66 30.68 -35 30 Z M-97 77 C-97 77.33 -97 77.66 -97 78 C-95.02 78 -93.04 78 -91 78 C-91 77.67 -91 77.34 -91 77 C-92.98 77 -94.96 77 -97 77 Z " fill="#651146" transform="translate(171,18)"/>
<path d="M0 0 C1.5 1.8125 1.5 1.8125 1.75 4.5 C1.6675 5.263125 1.585 6.02625 1.5 6.8125 C-0.15 7.4725 -1.8 8.1325 -3.5 8.8125 C-4.54449911 5.67900268 -4.43423645 4.82281744 -3.5 1.8125 C-7.78529137 2.18919868 -7.78529137 2.18919868 -11.375 4.375 C-12.99925488 7.8942189 -13.06338184 11.00184781 -12.5 14.8125 C-11.54826062 17.33290427 -11.54826062 17.33290427 -9.5 18.8125 C-6.39802603 19.62196422 -6.39802603 19.62196422 -3.5 19.8125 C-3.5 18.1625 -3.5 16.5125 -3.5 14.8125 C-4.16 14.8125 -4.82 14.8125 -5.5 14.8125 C-5.5 13.8225 -5.5 12.8325 -5.5 11.8125 C-2.53 11.8125 0.44 11.8125 3.5 11.8125 C3.5 12.8025 3.5 13.7925 3.5 14.8125 C2.84 15.1425 2.18 15.4725 1.5 15.8125 C0.84227572 18.84184491 0.84227572 18.84184491 0.5 21.8125 C-4.52950475 23.48900158 -9.52791589 23.65168473 -14.4375 21.5625 C-17.1493416 19.26154349 -18.28514518 17.18657152 -18.8359375 13.6640625 C-18.93145621 8.2194959 -18.23277479 5.06371573 -14.5 0.8125 C-10.44960588 -2.36995252 -4.48809818 -2.13184663 0 0 Z " fill="#651146" transform="translate(79.5,149.1875)"/>
<path d="M0 0 C3.43648574 2.73516212 4.67229207 4.16834674 5.4375 8.4453125 C5.64019557 12.68925107 5.41480269 15.28890968 3.25 19 C-0.10103817 21.97870059 -1.87160806 22.87462312 -6.375 23.375 C-10.7179218 22.92573223 -12.70673134 21.8337428 -16 19 C-18.28982738 15.41592236 -18.27009985 12.17831589 -17.61328125 8 C-16.53506775 4.48378784 -14.62067492 2.5582779 -12 0 C-7.79155988 -1.40281337 -4.26620585 -1.18049128 0 0 Z M-10.8125 3 C-12.67579296 6.13817761 -13.01399948 9.41613322 -13 13 C-12.09108722 16.21615293 -11.35959872 17.64040128 -9 20 C-6.04253508 20.58345476 -6.04253508 20.58345476 -3 20 C-0.38906826 17.21500615 0.20651425 14.70668656 0.375 11 C0.20651425 7.29331344 -0.38906826 4.78499385 -3 2 C-6.13191198 1.47801467 -8.00970921 1.45363267 -10.8125 3 Z " fill="#641146" transform="translate(188,149)"/>
<path d="M0 0 C2.58445773 -0.1081866 5.16437352 -0.18737237 7.75 -0.25 C8.47960937 -0.28351563 9.20921875 -0.31703125 9.9609375 -0.3515625 C13.53903352 -0.41661879 15.57916276 -0.30630144 18.51171875 1.828125 C20 4 20 4 20.0625 7 C18.72774495 10.76872015 17.44818248 12.00771679 14 14 C10.6875 14.25 10.6875 14.25 8 14 C8 15.98 8 17.96 8 20 C8.99 20 9.98 20 11 20 C11 20.66 11 21.32 11 22 C7.37 22 3.74 22 0 22 C0 21.34 0 20.68 0 20 C0.99 20 1.98 20 3 20 C3 14.06 3 8.12 3 2 C2.01 2 1.02 2 0 2 C0 1.34 0 0.68 0 0 Z M8 2 C8 4.97 8 7.94 8 11 C10.41619823 11.25030977 10.41619823 11.25030977 13 11 C15.33391203 8.21885944 15.33391203 8.21885944 14.625 5.3125 C14.41875 4.549375 14.2125 3.78625 14 3 C11.03 2.505 11.03 2.505 8 2 Z " fill="#651145" transform="translate(204,149)"/>
<path d="M0 0 C2.41734542 -0.08117951 4.83194949 -0.14056926 7.25 -0.1875 C7.93191406 -0.21263672 8.61382812 -0.23777344 9.31640625 -0.26367188 C12.4470364 -0.30926358 14.6590621 -0.18052852 17.44921875 1.296875 C19 3 19 3 19.5625 6.4375 C19 10 19 10 16.9375 12.4375 C13.38933056 14.32482417 10.96359827 14.31087045 7 14 C7.33 15.98 7.66 17.96 8 20 C8.66 20 9.32 20 10 20 C10 20.66 10 21.32 10 22 C6.7 22 3.4 22 0 22 C0 21.34 0 20.68 0 20 C0.66 19.67 1.32 19.34 2 19 C2 13.72 2 8.44 2 3 C1.34 2.67 0.68 2.34 0 2 C0 1.34 0 0.68 0 0 Z M8 2 C6.79438816 2.98267859 6.79438816 2.98267859 6.90234375 4.84765625 C6.91394531 5.57855469 6.92554688 6.30945313 6.9375 7.0625 C6.958125 8.361875 6.97875 9.66125 7 11 C9.37305578 11.41780879 9.37305578 11.41780879 12 11 C13.8624438 8.59141286 13.8624438 8.59141286 15 6 C13.18777466 3.9375006 13.18777466 3.9375006 11 2 C10.01 2 9.02 2 8 2 Z " fill="#651147" transform="translate(1,149)"/>
<path d="M0 0 C2.8125 -0.25 2.8125 -0.25 6 0 C9.67498185 3.74162659 11.04780423 8.95523355 12.83789062 13.77539062 C14.05593367 17.59045533 14.05593367 17.59045533 17 20 C17 20.66 17 21.32 17 22 C13.7 22 10.4 22 7 22 C7 21.34 7 20.68 7 20 C7.66 20 8.32 20 9 20 C8.67 18.68 8.34 17.36 8 16 C5.69 16 3.38 16 1 16 C0.34 17.32 -0.32 18.64 -1 20 C-0.01 20 0.98 20 2 20 C2 20.66 2 21.32 2 22 C-0.97 22 -3.94 22 -7 22 C-7 21.34 -7 20.68 -7 20 C-6.11054688 19.17242187 -6.11054688 19.17242187 -5.203125 18.328125 C-2.48929424 15.46031803 -1.18830106 12.36042918 0.25 8.75 C0.6521875 7.77546875 0.6521875 7.77546875 1.0625 6.78125 C1.71725016 5.19114246 2.35987282 3.59605042 3 2 C2.01 2 1.02 2 0 2 C0 1.34 0 0.68 0 0 Z M4 6 C3.34 8.31 2.68 10.62 2 13 C3.65 13 5.3 13 7 13 C6.34 10.69 5.68 8.38 5 6 C4.67 6 4.34 6 4 6 Z " fill="#641145" transform="translate(34,149)"/>
<path d="M0 0 C5.61 0 11.22 0 17 0 C17 2.31 17 4.62 17 7 C16.01 7 15.02 7 14 7 C13.773125 6.360625 13.54625 5.72125 13.3125 5.0625 C12.14749104 2.72806339 12.14749104 2.72806339 9.375 2.25 C8.59125 2.1675 7.8075 2.085 7 2 C7 4.64 7 7.28 7 10 C9.31 10 11.62 10 14 10 C14 10.66 14 11.32 14 12 C11.69 12 9.38 12 7 12 C7.33 14.31 7.66 16.62 8 19 C9.98 19.33 11.96 19.66 14 20 C14.33 18.68 14.66 17.36 15 16 C15.99 16 16.98 16 18 16 C18 17.98 18 19.96 18 22 C12.06 22 6.12 22 0 22 C0 21.34 0 20.68 0 20 C0.66 19.67 1.32 19.34 2 19 C2 13.72 2 8.44 2 3 C1.34 2.67 0.68 2.34 0 2 C0 1.34 0 0.68 0 0 Z " fill="#651146" transform="translate(94,149)"/>
<path d="M0 0 C6.27 0 12.54 0 19 0 C19 2.31 19 4.62 19 7 C18.01 6.67 17.02 6.34 16 6 C15.67 5.01 15.34 4.02 15 3 C14.01 2.67 13.02 2.34 12 2 C12 7.94 12 13.88 12 20 C12.99 20 13.98 20 15 20 C15 20.66 15 21.32 15 22 C11.37 22 7.74 22 4 22 C4 21.34 4 20.68 4 20 C4.99 20 5.98 20 7 20 C7 14.06 7 8.12 7 2 C6.01 2.33 5.02 2.66 4 3 C3.26676204 5.01508358 3.26676204 5.01508358 3 7 C2.01 7 1.02 7 0 7 C0 4.69 0 2.38 0 0 Z " fill="#651146" transform="translate(140,149)"/>
<path d="M0 0 C0.33 0 0.66 0 1 0 C1.78291815 9.93436141 1.78291815 9.93436141 -1.25 14.0625 C-3.48158044 15.63474986 -5.55697178 16.8254672 -8 18 C-7.69128878 16.20767663 -7.37790936 14.41615679 -7.0625 12.625 C-6.88847656 11.62726562 -6.71445313 10.62953125 -6.53515625 9.6015625 C-6 7 -6 7 -5 5 C-2.9375 4.375 -2.9375 4.375 -1 4 C-0.67 2.68 -0.34 1.36 0 0 Z M-4 6 C-3 9 -3 9 -3 9 Z M-5 9 C-4 11 -4 11 -4 11 Z " fill="#651147" transform="translate(167,0)"/>
<path d="M0 0 C1.47896861 2.95793723 1.4355582 4.70220224 1 8 C-0.71061988 10.62645944 -2.6399272 12.93340775 -5 15 C-5.66 15 -6.32 15 -7 15 C-6.1377511 8.37226593 -5.35533057 4.22789256 0 0 Z " fill="#631046" transform="translate(152,11)"/>
<path d="M0 0 C0.66 0 1.32 0 2 0 C0.95125002 2.62187494 0.35068687 3.79371361 -2.125 5.25 C-2.74375 5.4975 -3.3625 5.745 -4 6 C-2.84826645 3.53199953 -1.95216435 1.95216435 0 0 Z M-7 7 C-5 8 -5 8 -5 8 Z " fill="#580E40" transform="translate(162,20)"/>
</svg>
